<mxfile host="app.diagrams.net" modified="2023-08-29T04:47:06.432Z" agent="Mozilla/5.0 (Windows NT 10.0; Win64; x64) AppleWebKit/537.36 (KHTML, like Gecko) Chrome/114.0.0.0 Safari/537.36" etag="5XrXMO0E1ebQirJ8q7TV" version="21.6.9" type="device">
  <diagram name="PÃ¡gina-1" id="UBFD0SjN2A1qQrp4fJak">
    <mxGraphModel dx="749" dy="516" grid="1" gridSize="10" guides="1" tooltips="1" connect="1" arrows="1" fold="1" page="1" pageScale="1" pageWidth="827" pageHeight="1169" math="0" shadow="0">
      <root>
        <mxCell id="0" />
        <mxCell id="1" parent="0" />
        <mxCell id="TTxvTrn5Re-5k9SzxUuJ-1" value="" style="rounded=0;whiteSpace=wrap;html=1;" vertex="1" parent="1">
          <mxGeometry x="160" y="80" width="580" height="430" as="geometry" />
        </mxCell>
        <mxCell id="TTxvTrn5Re-5k9SzxUuJ-2" value="Console" style="rounded=0;whiteSpace=wrap;html=1;fillColor=#dae8fc;strokeColor=#6c8ebf;" vertex="1" parent="1">
          <mxGeometry x="160" y="340" width="580" height="170" as="geometry" />
        </mxCell>
        <mxCell id="TTxvTrn5Re-5k9SzxUuJ-3" value="Database structure and properties and Csharp Debug" style="rounded=0;whiteSpace=wrap;html=1;fillColor=#dae8fc;strokeColor=#6c8ebf;" vertex="1" parent="1">
          <mxGeometry x="160" y="100" width="160" height="240" as="geometry" />
        </mxCell>
        <mxCell id="TTxvTrn5Re-5k9SzxUuJ-4" value="storages node editor" style="rounded=0;whiteSpace=wrap;html=1;fillColor=#dae8fc;strokeColor=#6c8ebf;" vertex="1" parent="1">
          <mxGeometry x="320" y="100" width="420" height="240" as="geometry" />
        </mxCell>
        <mxCell id="TTxvTrn5Re-5k9SzxUuJ-5" value="ToolBar" style="rounded=0;whiteSpace=wrap;html=1;fillColor=#dae8fc;strokeColor=#6c8ebf;" vertex="1" parent="1">
          <mxGeometry x="160" y="80" width="580" height="20" as="geometry" />
        </mxCell>
      </root>
    </mxGraphModel>
  </diagram>
</mxfile>
